<mxfile host="app.diagrams.net" modified="2023-12-18T12:33:11.765Z" agent="Mozilla/5.0 (Windows NT 10.0; Win64; x64) AppleWebKit/537.36 (KHTML, like Gecko) Chrome/120.0.0.0 Safari/537.36" etag="vi1PLq-VftE62ACk7uw_" version="22.1.11" type="device">
  <diagram name="Page-1" id="hHkz_xLbhdwwgFBBZE12">
    <mxGraphModel dx="763" dy="363" grid="1" gridSize="10" guides="1" tooltips="1" connect="1" arrows="1" fold="1" page="1" pageScale="1" pageWidth="850" pageHeight="1100" math="0" shadow="0">
      <root>
        <mxCell id="0" />
        <mxCell id="1" parent="0" />
        <mxCell id="d_PLMUKH_YJChat8x5Hh-1" value="HR Assistant" style="shape=umlActor;verticalLabelPosition=bottom;verticalAlign=top;html=1;outlineConnect=0;" vertex="1" parent="1">
          <mxGeometry x="120" y="80" width="30" height="60" as="geometry" />
        </mxCell>
        <mxCell id="d_PLMUKH_YJChat8x5Hh-2" value="" style="rounded=0;whiteSpace=wrap;html=1;" vertex="1" parent="1">
          <mxGeometry x="365" y="80" width="120" height="60" as="geometry" />
        </mxCell>
        <mxCell id="d_PLMUKH_YJChat8x5Hh-3" value="" style="shape=cylinder3;whiteSpace=wrap;html=1;boundedLbl=1;backgroundOutline=1;size=15;" vertex="1" parent="1">
          <mxGeometry x="690" y="60" width="60" height="80" as="geometry" />
        </mxCell>
        <mxCell id="d_PLMUKH_YJChat8x5Hh-4" value="" style="rounded=0;whiteSpace=wrap;html=1;" vertex="1" parent="1">
          <mxGeometry x="130" y="200" width="10" height="880" as="geometry" />
        </mxCell>
        <mxCell id="d_PLMUKH_YJChat8x5Hh-6" value="" style="rounded=0;whiteSpace=wrap;html=1;" vertex="1" parent="1">
          <mxGeometry x="420" y="200" width="10" height="840" as="geometry" />
        </mxCell>
        <mxCell id="d_PLMUKH_YJChat8x5Hh-7" value="" style="rounded=0;whiteSpace=wrap;html=1;" vertex="1" parent="1">
          <mxGeometry x="715" y="200" width="10" height="780" as="geometry" />
        </mxCell>
        <mxCell id="d_PLMUKH_YJChat8x5Hh-9" value="Display" style="text;html=1;align=center;verticalAlign=middle;resizable=0;points=[];autosize=1;strokeColor=none;fillColor=none;" vertex="1" parent="1">
          <mxGeometry x="395" y="140" width="60" height="30" as="geometry" />
        </mxCell>
        <mxCell id="d_PLMUKH_YJChat8x5Hh-10" value="DataBase" style="text;html=1;align=center;verticalAlign=middle;resizable=0;points=[];autosize=1;strokeColor=none;fillColor=none;" vertex="1" parent="1">
          <mxGeometry x="680" y="140" width="80" height="30" as="geometry" />
        </mxCell>
        <mxCell id="d_PLMUKH_YJChat8x5Hh-11" value="" style="endArrow=none;dashed=1;html=1;rounded=0;exitX=0.5;exitY=0;exitDx=0;exitDy=0;" edge="1" parent="1" source="d_PLMUKH_YJChat8x5Hh-4">
          <mxGeometry width="50" height="50" relative="1" as="geometry">
            <mxPoint x="120" y="190" as="sourcePoint" />
            <mxPoint x="135" y="160" as="targetPoint" />
          </mxGeometry>
        </mxCell>
        <mxCell id="d_PLMUKH_YJChat8x5Hh-12" value="" style="endArrow=none;dashed=1;html=1;rounded=0;exitX=0.5;exitY=0;exitDx=0;exitDy=0;" edge="1" parent="1" source="d_PLMUKH_YJChat8x5Hh-6" target="d_PLMUKH_YJChat8x5Hh-9">
          <mxGeometry width="50" height="50" relative="1" as="geometry">
            <mxPoint x="350" y="160" as="sourcePoint" />
            <mxPoint x="400" y="110" as="targetPoint" />
          </mxGeometry>
        </mxCell>
        <mxCell id="d_PLMUKH_YJChat8x5Hh-13" value="" style="endArrow=none;dashed=1;html=1;rounded=0;exitX=0.5;exitY=0;exitDx=0;exitDy=0;entryX=0.498;entryY=0.944;entryDx=0;entryDy=0;entryPerimeter=0;" edge="1" parent="1" source="d_PLMUKH_YJChat8x5Hh-7" target="d_PLMUKH_YJChat8x5Hh-10">
          <mxGeometry width="50" height="50" relative="1" as="geometry">
            <mxPoint x="550" y="120" as="sourcePoint" />
            <mxPoint x="600" y="70" as="targetPoint" />
          </mxGeometry>
        </mxCell>
        <mxCell id="d_PLMUKH_YJChat8x5Hh-14" value="" style="endArrow=classic;html=1;rounded=0;exitX=0.948;exitY=0.026;exitDx=0;exitDy=0;exitPerimeter=0;entryX=-0.022;entryY=0.026;entryDx=0;entryDy=0;entryPerimeter=0;" edge="1" parent="1" source="d_PLMUKH_YJChat8x5Hh-4" target="d_PLMUKH_YJChat8x5Hh-6">
          <mxGeometry width="50" height="50" relative="1" as="geometry">
            <mxPoint x="300" y="330" as="sourcePoint" />
            <mxPoint x="350" y="280" as="targetPoint" />
          </mxGeometry>
        </mxCell>
        <mxCell id="d_PLMUKH_YJChat8x5Hh-15" value="Login()" style="text;html=1;align=center;verticalAlign=middle;resizable=0;points=[];autosize=1;strokeColor=none;fillColor=none;" vertex="1" parent="1">
          <mxGeometry x="240" y="198" width="60" height="30" as="geometry" />
        </mxCell>
        <mxCell id="d_PLMUKH_YJChat8x5Hh-16" value="" style="endArrow=classic;html=1;rounded=0;exitX=0.948;exitY=0.026;exitDx=0;exitDy=0;exitPerimeter=0;entryX=-0.103;entryY=0.049;entryDx=0;entryDy=0;entryPerimeter=0;" edge="1" parent="1" target="d_PLMUKH_YJChat8x5Hh-7">
          <mxGeometry width="50" height="50" relative="1" as="geometry">
            <mxPoint x="430" y="240" as="sourcePoint" />
            <mxPoint x="710" y="240" as="targetPoint" />
          </mxGeometry>
        </mxCell>
        <mxCell id="d_PLMUKH_YJChat8x5Hh-17" value="Authentication" style="text;html=1;align=center;verticalAlign=middle;resizable=0;points=[];autosize=1;strokeColor=none;fillColor=none;" vertex="1" parent="1">
          <mxGeometry x="510" y="218" width="100" height="30" as="geometry" />
        </mxCell>
        <mxCell id="d_PLMUKH_YJChat8x5Hh-18" value="" style="endArrow=classic;dashed=1;html=1;rounded=0;endFill=1;" edge="1" parent="1">
          <mxGeometry width="50" height="50" relative="1" as="geometry">
            <mxPoint x="715" y="280" as="sourcePoint" />
            <mxPoint x="430" y="280" as="targetPoint" />
          </mxGeometry>
        </mxCell>
        <mxCell id="d_PLMUKH_YJChat8x5Hh-19" value="Username and Password Valid" style="text;html=1;align=center;verticalAlign=middle;resizable=0;points=[];autosize=1;strokeColor=none;fillColor=none;" vertex="1" parent="1">
          <mxGeometry x="465" y="248" width="190" height="30" as="geometry" />
        </mxCell>
        <mxCell id="d_PLMUKH_YJChat8x5Hh-20" value="" style="endArrow=classic;html=1;rounded=0;exitX=-0.076;exitY=0.127;exitDx=0;exitDy=0;exitPerimeter=0;entryX=0.98;entryY=0.122;entryDx=0;entryDy=0;entryPerimeter=0;" edge="1" parent="1" source="d_PLMUKH_YJChat8x5Hh-6" target="d_PLMUKH_YJChat8x5Hh-4">
          <mxGeometry width="50" height="50" relative="1" as="geometry">
            <mxPoint x="300" y="220" as="sourcePoint" />
            <mxPoint x="150" y="300" as="targetPoint" />
          </mxGeometry>
        </mxCell>
        <mxCell id="d_PLMUKH_YJChat8x5Hh-21" value="Redirect to relevant Page" style="text;html=1;align=center;verticalAlign=middle;resizable=0;points=[];autosize=1;strokeColor=none;fillColor=none;" vertex="1" parent="1">
          <mxGeometry x="190" y="268" width="160" height="30" as="geometry" />
        </mxCell>
        <mxCell id="d_PLMUKH_YJChat8x5Hh-22" value="" style="endArrow=classic;dashed=1;html=1;rounded=0;endFill=1;" edge="1" parent="1">
          <mxGeometry width="50" height="50" relative="1" as="geometry">
            <mxPoint x="715" y="310" as="sourcePoint" />
            <mxPoint x="430" y="310" as="targetPoint" />
          </mxGeometry>
        </mxCell>
        <mxCell id="d_PLMUKH_YJChat8x5Hh-23" value="Username and Password InValid" style="text;html=1;align=center;verticalAlign=middle;resizable=0;points=[];autosize=1;strokeColor=none;fillColor=none;" vertex="1" parent="1">
          <mxGeometry x="460" y="278" width="200" height="30" as="geometry" />
        </mxCell>
        <mxCell id="d_PLMUKH_YJChat8x5Hh-24" value="" style="endArrow=classic;html=1;rounded=0;exitX=-0.14;exitY=0.164;exitDx=0;exitDy=0;exitPerimeter=0;entryX=0.98;entryY=0.122;entryDx=0;entryDy=0;entryPerimeter=0;" edge="1" parent="1" source="d_PLMUKH_YJChat8x5Hh-6">
          <mxGeometry width="50" height="50" relative="1" as="geometry">
            <mxPoint x="420" y="341" as="sourcePoint" />
            <mxPoint x="140" y="340" as="targetPoint" />
          </mxGeometry>
        </mxCell>
        <mxCell id="d_PLMUKH_YJChat8x5Hh-25" value="Show Error Message" style="text;html=1;align=center;verticalAlign=middle;resizable=0;points=[];autosize=1;strokeColor=none;fillColor=none;" vertex="1" parent="1">
          <mxGeometry x="210" y="308" width="140" height="30" as="geometry" />
        </mxCell>
        <mxCell id="d_PLMUKH_YJChat8x5Hh-26" value="" style="endArrow=classic;html=1;rounded=0;exitX=0.948;exitY=0.026;exitDx=0;exitDy=0;exitPerimeter=0;entryX=-0.022;entryY=0.026;entryDx=0;entryDy=0;entryPerimeter=0;" edge="1" parent="1">
          <mxGeometry width="50" height="50" relative="1" as="geometry">
            <mxPoint x="139" y="410" as="sourcePoint" />
            <mxPoint x="420" y="410" as="targetPoint" />
          </mxGeometry>
        </mxCell>
        <mxCell id="d_PLMUKH_YJChat8x5Hh-27" value="SearchEmployeeByDepartment()" style="text;html=1;align=center;verticalAlign=middle;resizable=0;points=[];autosize=1;strokeColor=none;fillColor=none;" vertex="1" parent="1">
          <mxGeometry x="180" y="378" width="200" height="30" as="geometry" />
        </mxCell>
        <mxCell id="d_PLMUKH_YJChat8x5Hh-29" value="" style="endArrow=classic;html=1;rounded=0;exitX=0.948;exitY=0.026;exitDx=0;exitDy=0;exitPerimeter=0;entryX=-0.103;entryY=0.049;entryDx=0;entryDy=0;entryPerimeter=0;" edge="1" parent="1">
          <mxGeometry width="50" height="50" relative="1" as="geometry">
            <mxPoint x="430" y="448" as="sourcePoint" />
            <mxPoint x="714" y="448" as="targetPoint" />
          </mxGeometry>
        </mxCell>
        <mxCell id="d_PLMUKH_YJChat8x5Hh-30" value="Send Department" style="text;html=1;align=center;verticalAlign=middle;resizable=0;points=[];autosize=1;strokeColor=none;fillColor=none;" vertex="1" parent="1">
          <mxGeometry x="500" y="418" width="120" height="30" as="geometry" />
        </mxCell>
        <mxCell id="d_PLMUKH_YJChat8x5Hh-31" value="" style="endArrow=classic;html=1;rounded=0;entryX=1.161;entryY=0.341;entryDx=0;entryDy=0;entryPerimeter=0;" edge="1" parent="1" target="d_PLMUKH_YJChat8x5Hh-6">
          <mxGeometry width="50" height="50" relative="1" as="geometry">
            <mxPoint x="710" y="486" as="sourcePoint" />
            <mxPoint x="715" y="470" as="targetPoint" />
          </mxGeometry>
        </mxCell>
        <mxCell id="d_PLMUKH_YJChat8x5Hh-32" value="Send Data to System" style="text;html=1;align=center;verticalAlign=middle;resizable=0;points=[];autosize=1;strokeColor=none;fillColor=none;" vertex="1" parent="1">
          <mxGeometry x="490" y="448" width="140" height="30" as="geometry" />
        </mxCell>
        <mxCell id="d_PLMUKH_YJChat8x5Hh-33" value="" style="endArrow=classic;html=1;rounded=0;exitX=0.022;exitY=0.123;exitDx=0;exitDy=0;exitPerimeter=0;entryX=0.98;entryY=0.122;entryDx=0;entryDy=0;entryPerimeter=0;" edge="1" parent="1">
          <mxGeometry width="50" height="50" relative="1" as="geometry">
            <mxPoint x="420" y="501" as="sourcePoint" />
            <mxPoint x="140" y="500" as="targetPoint" />
          </mxGeometry>
        </mxCell>
        <mxCell id="d_PLMUKH_YJChat8x5Hh-34" value="Successfully Written Message" style="text;html=1;align=center;verticalAlign=middle;resizable=0;points=[];autosize=1;strokeColor=none;fillColor=none;" vertex="1" parent="1">
          <mxGeometry x="190" y="468" width="180" height="30" as="geometry" />
        </mxCell>
        <mxCell id="d_PLMUKH_YJChat8x5Hh-35" value="" style="endArrow=classic;html=1;rounded=0;exitX=0.948;exitY=0.026;exitDx=0;exitDy=0;exitPerimeter=0;entryX=-0.022;entryY=0.026;entryDx=0;entryDy=0;entryPerimeter=0;" edge="1" parent="1">
          <mxGeometry width="50" height="50" relative="1" as="geometry">
            <mxPoint x="139" y="540" as="sourcePoint" />
            <mxPoint x="420" y="540" as="targetPoint" />
          </mxGeometry>
        </mxCell>
        <mxCell id="d_PLMUKH_YJChat8x5Hh-36" value="SearchEmployeeByDesignation()" style="text;html=1;align=center;verticalAlign=middle;resizable=0;points=[];autosize=1;strokeColor=none;fillColor=none;" vertex="1" parent="1">
          <mxGeometry x="180" y="510" width="200" height="30" as="geometry" />
        </mxCell>
        <mxCell id="d_PLMUKH_YJChat8x5Hh-37" value="" style="endArrow=classic;html=1;rounded=0;exitX=0.948;exitY=0.026;exitDx=0;exitDy=0;exitPerimeter=0;entryX=-0.103;entryY=0.049;entryDx=0;entryDy=0;entryPerimeter=0;" edge="1" parent="1">
          <mxGeometry width="50" height="50" relative="1" as="geometry">
            <mxPoint x="431" y="560" as="sourcePoint" />
            <mxPoint x="715" y="560" as="targetPoint" />
          </mxGeometry>
        </mxCell>
        <mxCell id="d_PLMUKH_YJChat8x5Hh-38" value="" style="endArrow=classic;html=1;rounded=0;entryX=1.161;entryY=0.341;entryDx=0;entryDy=0;entryPerimeter=0;exitX=-0.187;exitY=0.342;exitDx=0;exitDy=0;exitPerimeter=0;" edge="1" parent="1">
          <mxGeometry width="50" height="50" relative="1" as="geometry">
            <mxPoint x="711" y="590" as="sourcePoint" />
            <mxPoint x="430" y="590" as="targetPoint" />
          </mxGeometry>
        </mxCell>
        <mxCell id="d_PLMUKH_YJChat8x5Hh-39" value="Send Designation" style="text;html=1;align=center;verticalAlign=middle;resizable=0;points=[];autosize=1;strokeColor=none;fillColor=none;" vertex="1" parent="1">
          <mxGeometry x="500" y="535" width="120" height="30" as="geometry" />
        </mxCell>
        <mxCell id="d_PLMUKH_YJChat8x5Hh-40" value="Send Data to System" style="text;html=1;align=center;verticalAlign=middle;resizable=0;points=[];autosize=1;strokeColor=none;fillColor=none;" vertex="1" parent="1">
          <mxGeometry x="490" y="565" width="140" height="30" as="geometry" />
        </mxCell>
        <mxCell id="d_PLMUKH_YJChat8x5Hh-41" value="" style="endArrow=classic;html=1;rounded=0;exitX=0.022;exitY=0.123;exitDx=0;exitDy=0;exitPerimeter=0;entryX=0.98;entryY=0.122;entryDx=0;entryDy=0;entryPerimeter=0;" edge="1" parent="1">
          <mxGeometry width="50" height="50" relative="1" as="geometry">
            <mxPoint x="420" y="610.5" as="sourcePoint" />
            <mxPoint x="140" y="609.5" as="targetPoint" />
          </mxGeometry>
        </mxCell>
        <mxCell id="d_PLMUKH_YJChat8x5Hh-42" value="Successfully Written Message" style="text;html=1;align=center;verticalAlign=middle;resizable=0;points=[];autosize=1;strokeColor=none;fillColor=none;" vertex="1" parent="1">
          <mxGeometry x="180" y="578" width="180" height="30" as="geometry" />
        </mxCell>
        <mxCell id="d_PLMUKH_YJChat8x5Hh-44" value="" style="endArrow=classic;html=1;rounded=0;exitX=0.948;exitY=0.026;exitDx=0;exitDy=0;exitPerimeter=0;entryX=-0.022;entryY=0.026;entryDx=0;entryDy=0;entryPerimeter=0;" edge="1" parent="1">
          <mxGeometry width="50" height="50" relative="1" as="geometry">
            <mxPoint x="140" y="650" as="sourcePoint" />
            <mxPoint x="421" y="650" as="targetPoint" />
          </mxGeometry>
        </mxCell>
        <mxCell id="d_PLMUKH_YJChat8x5Hh-45" value="SearchEmployeeByName()" style="text;html=1;align=center;verticalAlign=middle;resizable=0;points=[];autosize=1;strokeColor=none;fillColor=none;" vertex="1" parent="1">
          <mxGeometry x="185" y="618" width="170" height="30" as="geometry" />
        </mxCell>
        <mxCell id="d_PLMUKH_YJChat8x5Hh-46" value="" style="endArrow=classic;html=1;rounded=0;exitX=0.948;exitY=0.026;exitDx=0;exitDy=0;exitPerimeter=0;entryX=-0.103;entryY=0.049;entryDx=0;entryDy=0;entryPerimeter=0;" edge="1" parent="1">
          <mxGeometry width="50" height="50" relative="1" as="geometry">
            <mxPoint x="431" y="660" as="sourcePoint" />
            <mxPoint x="715" y="660" as="targetPoint" />
          </mxGeometry>
        </mxCell>
        <mxCell id="d_PLMUKH_YJChat8x5Hh-47" value="Send Name" style="text;html=1;align=center;verticalAlign=middle;resizable=0;points=[];autosize=1;strokeColor=none;fillColor=none;" vertex="1" parent="1">
          <mxGeometry x="515" y="630" width="90" height="30" as="geometry" />
        </mxCell>
        <mxCell id="d_PLMUKH_YJChat8x5Hh-48" value="" style="endArrow=classic;html=1;rounded=0;entryX=1.161;entryY=0.341;entryDx=0;entryDy=0;entryPerimeter=0;exitX=-0.187;exitY=0.342;exitDx=0;exitDy=0;exitPerimeter=0;" edge="1" parent="1">
          <mxGeometry width="50" height="50" relative="1" as="geometry">
            <mxPoint x="711" y="690" as="sourcePoint" />
            <mxPoint x="430" y="690" as="targetPoint" />
          </mxGeometry>
        </mxCell>
        <mxCell id="d_PLMUKH_YJChat8x5Hh-49" value="Send Data to the System," style="text;html=1;align=center;verticalAlign=middle;resizable=0;points=[];autosize=1;strokeColor=none;fillColor=none;" vertex="1" parent="1">
          <mxGeometry x="480" y="660" width="160" height="30" as="geometry" />
        </mxCell>
        <mxCell id="d_PLMUKH_YJChat8x5Hh-50" value="" style="endArrow=classic;html=1;rounded=0;exitX=0.022;exitY=0.123;exitDx=0;exitDy=0;exitPerimeter=0;entryX=0.98;entryY=0.122;entryDx=0;entryDy=0;entryPerimeter=0;" edge="1" parent="1">
          <mxGeometry width="50" height="50" relative="1" as="geometry">
            <mxPoint x="420" y="711" as="sourcePoint" />
            <mxPoint x="140" y="710" as="targetPoint" />
          </mxGeometry>
        </mxCell>
        <mxCell id="d_PLMUKH_YJChat8x5Hh-51" value="Successfully Written Message&amp;nbsp;" style="text;html=1;align=center;verticalAlign=middle;resizable=0;points=[];autosize=1;strokeColor=none;fillColor=none;" vertex="1" parent="1">
          <mxGeometry x="190" y="680" width="190" height="30" as="geometry" />
        </mxCell>
        <mxCell id="d_PLMUKH_YJChat8x5Hh-53" value="" style="endArrow=classic;html=1;rounded=0;exitX=0.948;exitY=0.026;exitDx=0;exitDy=0;exitPerimeter=0;entryX=-0.022;entryY=0.026;entryDx=0;entryDy=0;entryPerimeter=0;" edge="1" parent="1">
          <mxGeometry width="50" height="50" relative="1" as="geometry">
            <mxPoint x="139.5" y="750" as="sourcePoint" />
            <mxPoint x="420.5" y="750" as="targetPoint" />
          </mxGeometry>
        </mxCell>
        <mxCell id="d_PLMUKH_YJChat8x5Hh-54" value="SearchEmployeeByEPFNo()" style="text;html=1;align=center;verticalAlign=middle;resizable=0;points=[];autosize=1;strokeColor=none;fillColor=none;" vertex="1" parent="1">
          <mxGeometry x="190" y="720" width="180" height="30" as="geometry" />
        </mxCell>
        <mxCell id="d_PLMUKH_YJChat8x5Hh-55" value="" style="endArrow=classic;html=1;rounded=0;exitX=0.948;exitY=0.026;exitDx=0;exitDy=0;exitPerimeter=0;entryX=-0.103;entryY=0.049;entryDx=0;entryDy=0;entryPerimeter=0;" edge="1" parent="1">
          <mxGeometry width="50" height="50" relative="1" as="geometry">
            <mxPoint x="431" y="770" as="sourcePoint" />
            <mxPoint x="715" y="770" as="targetPoint" />
          </mxGeometry>
        </mxCell>
        <mxCell id="d_PLMUKH_YJChat8x5Hh-56" value="Send EPF" style="text;html=1;align=center;verticalAlign=middle;resizable=0;points=[];autosize=1;strokeColor=none;fillColor=none;" vertex="1" parent="1">
          <mxGeometry x="525" y="738" width="80" height="30" as="geometry" />
        </mxCell>
        <mxCell id="d_PLMUKH_YJChat8x5Hh-57" value="" style="endArrow=classic;html=1;rounded=0;entryX=1.161;entryY=0.341;entryDx=0;entryDy=0;entryPerimeter=0;exitX=-0.187;exitY=0.342;exitDx=0;exitDy=0;exitPerimeter=0;" edge="1" parent="1">
          <mxGeometry width="50" height="50" relative="1" as="geometry">
            <mxPoint x="711" y="810" as="sourcePoint" />
            <mxPoint x="430" y="810" as="targetPoint" />
          </mxGeometry>
        </mxCell>
        <mxCell id="d_PLMUKH_YJChat8x5Hh-58" value="Send Data to System" style="text;html=1;align=center;verticalAlign=middle;resizable=0;points=[];autosize=1;strokeColor=none;fillColor=none;" vertex="1" parent="1">
          <mxGeometry x="495" y="780" width="140" height="30" as="geometry" />
        </mxCell>
        <mxCell id="d_PLMUKH_YJChat8x5Hh-59" value="" style="endArrow=classic;html=1;rounded=0;exitX=0.022;exitY=0.123;exitDx=0;exitDy=0;exitPerimeter=0;entryX=0.98;entryY=0.122;entryDx=0;entryDy=0;entryPerimeter=0;" edge="1" parent="1">
          <mxGeometry width="50" height="50" relative="1" as="geometry">
            <mxPoint x="420" y="831" as="sourcePoint" />
            <mxPoint x="140" y="830" as="targetPoint" />
          </mxGeometry>
        </mxCell>
        <mxCell id="d_PLMUKH_YJChat8x5Hh-60" value="Successfully Written Message&amp;nbsp;" style="text;html=1;align=center;verticalAlign=middle;resizable=0;points=[];autosize=1;strokeColor=none;fillColor=none;" vertex="1" parent="1">
          <mxGeometry x="185" y="798" width="190" height="30" as="geometry" />
        </mxCell>
        <mxCell id="d_PLMUKH_YJChat8x5Hh-61" value="" style="endArrow=classic;html=1;rounded=0;exitX=0.948;exitY=0.026;exitDx=0;exitDy=0;exitPerimeter=0;entryX=-0.022;entryY=0.026;entryDx=0;entryDy=0;entryPerimeter=0;" edge="1" parent="1">
          <mxGeometry width="50" height="50" relative="1" as="geometry">
            <mxPoint x="139" y="870" as="sourcePoint" />
            <mxPoint x="420" y="870" as="targetPoint" />
          </mxGeometry>
        </mxCell>
        <mxCell id="d_PLMUKH_YJChat8x5Hh-62" value="View Employee Details" style="text;html=1;align=center;verticalAlign=middle;resizable=0;points=[];autosize=1;strokeColor=none;fillColor=none;" vertex="1" parent="1">
          <mxGeometry x="185" y="840" width="150" height="30" as="geometry" />
        </mxCell>
        <mxCell id="d_PLMUKH_YJChat8x5Hh-63" value="" style="endArrow=classic;html=1;rounded=0;exitX=0.948;exitY=0.026;exitDx=0;exitDy=0;exitPerimeter=0;entryX=-0.103;entryY=0.049;entryDx=0;entryDy=0;entryPerimeter=0;" edge="1" parent="1">
          <mxGeometry width="50" height="50" relative="1" as="geometry">
            <mxPoint x="431" y="880" as="sourcePoint" />
            <mxPoint x="715" y="880" as="targetPoint" />
          </mxGeometry>
        </mxCell>
        <mxCell id="d_PLMUKH_YJChat8x5Hh-64" value="View Employee Details" style="text;html=1;align=center;verticalAlign=middle;resizable=0;points=[];autosize=1;strokeColor=none;fillColor=none;" vertex="1" parent="1">
          <mxGeometry x="500" y="848" width="150" height="30" as="geometry" />
        </mxCell>
        <mxCell id="d_PLMUKH_YJChat8x5Hh-65" value="" style="endArrow=classic;html=1;rounded=0;entryX=1.161;entryY=0.341;entryDx=0;entryDy=0;entryPerimeter=0;exitX=-0.187;exitY=0.342;exitDx=0;exitDy=0;exitPerimeter=0;" edge="1" parent="1">
          <mxGeometry width="50" height="50" relative="1" as="geometry">
            <mxPoint x="711" y="920" as="sourcePoint" />
            <mxPoint x="430" y="920" as="targetPoint" />
          </mxGeometry>
        </mxCell>
        <mxCell id="d_PLMUKH_YJChat8x5Hh-66" value="Retrieve Employee Details" style="text;html=1;align=center;verticalAlign=middle;resizable=0;points=[];autosize=1;strokeColor=none;fillColor=none;" vertex="1" parent="1">
          <mxGeometry x="490" y="890" width="160" height="30" as="geometry" />
        </mxCell>
        <mxCell id="d_PLMUKH_YJChat8x5Hh-67" value="" style="endArrow=classic;html=1;rounded=0;exitX=0.022;exitY=0.123;exitDx=0;exitDy=0;exitPerimeter=0;entryX=0.98;entryY=0.122;entryDx=0;entryDy=0;entryPerimeter=0;" edge="1" parent="1">
          <mxGeometry width="50" height="50" relative="1" as="geometry">
            <mxPoint x="420" y="941" as="sourcePoint" />
            <mxPoint x="140" y="940" as="targetPoint" />
          </mxGeometry>
        </mxCell>
        <mxCell id="d_PLMUKH_YJChat8x5Hh-68" value="Show Employee Details" style="text;html=1;align=center;verticalAlign=middle;resizable=0;points=[];autosize=1;strokeColor=none;fillColor=none;" vertex="1" parent="1">
          <mxGeometry x="210" y="910" width="150" height="30" as="geometry" />
        </mxCell>
        <mxCell id="d_PLMUKH_YJChat8x5Hh-69" value="" style="endArrow=classic;html=1;rounded=0;exitX=0.948;exitY=0.026;exitDx=0;exitDy=0;exitPerimeter=0;entryX=-0.022;entryY=0.026;entryDx=0;entryDy=0;entryPerimeter=0;" edge="1" parent="1">
          <mxGeometry width="50" height="50" relative="1" as="geometry">
            <mxPoint x="139" y="980" as="sourcePoint" />
            <mxPoint x="420" y="980" as="targetPoint" />
          </mxGeometry>
        </mxCell>
        <mxCell id="d_PLMUKH_YJChat8x5Hh-70" value="" style="endArrow=classic;html=1;rounded=0;exitX=0.022;exitY=0.123;exitDx=0;exitDy=0;exitPerimeter=0;entryX=0.98;entryY=0.122;entryDx=0;entryDy=0;entryPerimeter=0;" edge="1" parent="1">
          <mxGeometry width="50" height="50" relative="1" as="geometry">
            <mxPoint x="420" y="1011" as="sourcePoint" />
            <mxPoint x="140" y="1010" as="targetPoint" />
          </mxGeometry>
        </mxCell>
        <mxCell id="d_PLMUKH_YJChat8x5Hh-71" value="Logout()" style="text;html=1;align=center;verticalAlign=middle;resizable=0;points=[];autosize=1;strokeColor=none;fillColor=none;" vertex="1" parent="1">
          <mxGeometry x="245" y="948" width="70" height="30" as="geometry" />
        </mxCell>
        <mxCell id="d_PLMUKH_YJChat8x5Hh-72" value="Logout Notification" style="text;html=1;align=center;verticalAlign=middle;resizable=0;points=[];autosize=1;strokeColor=none;fillColor=none;" vertex="1" parent="1">
          <mxGeometry x="215" y="978" width="120" height="30" as="geometry" />
        </mxCell>
        <mxCell id="d_PLMUKH_YJChat8x5Hh-73" value="" style="endArrow=none;dashed=1;html=1;rounded=0;exitX=0.5;exitY=0;exitDx=0;exitDy=0;" edge="1" parent="1">
          <mxGeometry width="50" height="50" relative="1" as="geometry">
            <mxPoint x="134.70999999999998" y="1120" as="sourcePoint" />
            <mxPoint x="134.70999999999998" y="1080" as="targetPoint" />
          </mxGeometry>
        </mxCell>
        <mxCell id="d_PLMUKH_YJChat8x5Hh-74" value="" style="endArrow=none;dashed=1;html=1;rounded=0;exitX=0.5;exitY=0;exitDx=0;exitDy=0;" edge="1" parent="1">
          <mxGeometry width="50" height="50" relative="1" as="geometry">
            <mxPoint x="424" y="1080" as="sourcePoint" />
            <mxPoint x="424" y="1040" as="targetPoint" />
          </mxGeometry>
        </mxCell>
        <mxCell id="d_PLMUKH_YJChat8x5Hh-75" value="" style="endArrow=none;dashed=1;html=1;rounded=0;exitX=0.5;exitY=0;exitDx=0;exitDy=0;" edge="1" parent="1">
          <mxGeometry width="50" height="50" relative="1" as="geometry">
            <mxPoint x="719.29" y="1020" as="sourcePoint" />
            <mxPoint x="719.29" y="980" as="targetPoint" />
          </mxGeometry>
        </mxCell>
      </root>
    </mxGraphModel>
  </diagram>
</mxfile>
